HIERARCHY
ROOT root
{
	OFFSET 0.000000 0.000000 0.000000
	CHANNELS 6 Xposition Yposition Zposition Zrotation Yrotation Xrotation
	JOINT lhip
	{
		OFFSET 0.058581 -0.082280 -0.017664
		CHANNELS 3 Zrotation Yrotation Xrotation
		JOINT lknee
		{
			OFFSET 0.043451 -0.386469 0.008037
			CHANNELS 3 Zrotation Yrotation Xrotation
			JOINT lankle
			{
				OFFSET -0.014790 -0.426874 -0.037428
				CHANNELS 3 Zrotation Yrotation Xrotation
				JOINT ltoe
				{
					OFFSET 0.041054 -0.060286 0.122042
					CHANNELS 3 Zrotation Yrotation Xrotation
					End Site
					{
						OFFSET 0.000000 0.000000 0.000000
					}
				}
			}
		}
	}
	JOINT rhip
	{
		OFFSET -0.060310 -0.090513 -0.013543
		CHANNELS 3 Zrotation Yrotation Xrotation
		JOINT rknee
		{
			OFFSET -0.043257 -0.383688 -0.004843
			CHANNELS 3 Zrotation Yrotation Xrotation
			JOINT rankle
			{
				OFFSET 0.019056 -0.420046 -0.034562
				CHANNELS 3 Zrotation Yrotation Xrotation
				JOINT rtoe
				{
					OFFSET -0.034840 -0.062106 0.130323
					CHANNELS 3 Zrotation Yrotation Xrotation
					End Site
					{
						OFFSET 0.000000 0.000000 0.000000
					}
				}
			}
		}
	}
	JOINT lowerback
	{
		OFFSET 0.004439 0.124404 -0.038385
		CHANNELS 3 Zrotation Yrotation Xrotation
		JOINT upperback
		{
			OFFSET 0.004488 0.137956 0.026820
			CHANNELS 3 Zrotation Yrotation Xrotation
			JOINT chest
			{
				OFFSET -0.002265 0.056032 0.002855
				CHANNELS 3 Zrotation Yrotation Xrotation
				JOINT lowerneck
				{
					OFFSET -0.013390 0.211636 -0.033468
					CHANNELS 3 Zrotation Yrotation Xrotation
					JOINT upperneck
					{
						OFFSET 0.010113 0.088937 0.050410
						CHANNELS 3 Zrotation Yrotation Xrotation
						End Site
						{
							OFFSET 0.000000 0.000000 0.000000
						}
					}
				}
				JOINT lclavicle
				{
					OFFSET 0.071702 0.114000 -0.018898
					CHANNELS 3 Zrotation Yrotation Xrotation
					JOINT lshoulder
					{
						OFFSET 0.122921 0.045205 -0.019046
						CHANNELS 3 Zrotation Yrotation Xrotation
						JOINT lelbow
						{
							OFFSET 0.255332 -0.015649 -0.022946
							CHANNELS 3 Zrotation Yrotation Xrotation
							JOINT lwrist
							{
								OFFSET 0.265709 0.012698 -0.007375
								CHANNELS 3 Zrotation Yrotation Xrotation
								End Site
								{
									OFFSET 0.000000 0.000000 0.000000
								}
							}
						}
					}
				}
				JOINT rclavicle
				{
					OFFSET -0.082954 0.112472 -0.023707
					CHANNELS 3 Zrotation Yrotation Xrotation
					JOINT rshoulder
					{
						OFFSET -0.113228 0.046853 -0.008472
						CHANNELS 3 Zrotation Yrotation Xrotation
						JOINT relbow
						{
							OFFSET -0.260127 -0.014369 -0.031269
							CHANNELS 3 Zrotation Yrotation Xrotation
							JOINT rwrist
							{
								OFFSET -0.269108 0.006794 -0.006027
								CHANNELS 3 Zrotation Yrotation Xrotation
								End Site
								{
									OFFSET 0.000000 0.000000 0.000000
								}
							}
						}
					}
				}
			}
		}
	}
}
MOTION
Frames: 11
Frame Time: 0.033333
-0.000085 0.013353 0.980578 -167.263301 -1.675748 91.346373 5.240338 3.584404 1.183394 -2.575763 -4.430279 -4.386406 0.775559 9.030659 -10.286959 0.000000 -0.000000 0.000000 -11.077132 -10.348284 1.236467 2.157143 -14.666298 3.366962 4.398068 -8.103733 -6.506183 0.000000 -0.000000 0.000000 2.059010 4.578641 -3.782027 -1.614278 1.650901 8.683400 -0.851380 1.332588 -2.759623 -2.549642 27.426469 5.046021 -3.177513 26.030906 8.677494 -31.195181 0.378180 -0.111107 -55.782600 -5.760157 12.422109 10.551415 -20.025017 -1.729615 -5.122227 -11.276296 -4.026689 31.342785 3.854372 8.207399 52.856161 8.423025 8.860218 -15.716912 19.724300 -21.409978 7.474766 11.441781 -16.277361 
0.000439 0.013003 0.980608 -167.486620 -1.428867 91.416142 5.560315 3.468032 1.125793 -2.630005 -4.115553 -4.297378 1.107596 8.981657 -10.028085 0.000000 -0.000000 0.000000 -10.791664 -10.116966 1.100750 2.305326 -14.170187 3.459608 4.676454 -8.470280 -6.305262 0.000000 -0.000000 0.000000 2.355278 4.417713 -3.644449 -1.740387 1.502294 8.076369 -0.862167 1.463728 -2.475711 -2.523735 26.832987 4.455140 -2.857683 25.867713 10.304016 -31.153683 0.141691 0.376407 -55.900817 -6.063522 12.237376 10.505175 -19.956920 -1.473843 -4.713002 -11.606576 -4.509087 31.178792 4.108586 8.635060 53.048491 8.575915 9.030394 -15.571472 18.734893 -20.637921 7.385391 11.093217 -16.062745 
0.000364 0.013028 0.980541 -167.653159 -1.493314 91.556626 5.432700 3.316142 1.026578 -2.603374 -3.902896 -4.353695 1.098139 9.151523 -9.904014 0.000000 -0.000000 0.000000 -10.793087 -9.867045 0.839656 2.193494 -13.954192 3.438094 4.895912 -8.835835 -6.512065 0.000000 -0.000000 0.000000 2.242346 4.232253 -3.675896 -1.861258 1.414893 7.536826 -1.083314 1.529323 -2.179696 -2.117831 26.708609 2.833330 -1.010824 24.671644 12.797054 -30.898043 0.171984 0.514493 -56.103712 -6.486020 12.322033 10.344511 -19.914204 -1.510315 -3.821793 -11.788489 -4.912824 31.665812 3.988366 8.657677 52.802518 8.740315 9.292186 -15.397929 18.339790 -20.294148 6.977509 10.793242 -16.219484 
0.000088 0.014069 0.980345 -167.995321 -1.336977 91.655770 5.496747 3.412805 0.936534 -2.512560 -3.608084 -4.147453 0.968188 9.111826 -9.744964 0.000000 -0.000000 0.000000 -10.616120 -9.941017 0.685859 2.131378 -13.680552 3.218989 4.860098 -8.719354 -6.563964 0.000000 -0.000000 0.000000 2.220594 4.070620 -4.224002 -1.674379 1.037428 7.832763 -1.303705 1.635604 -2.278434 -1.968646 24.803838 2.506811 0.053101 21.252520 13.593460 -31.057740 0.078255 0.643427 -55.974144 -6.695440 12.874250 10.275583 -19.664047 -1.493255 -4.587540 -12.108272 -3.294839 32.075465 4.313068 8.248759 52.412352 8.297143 9.548828 -15.189895 17.988747 -20.053241 7.365860 10.566795 -15.749833 
-0.000013 0.014624 0.980281 -168.330083 -1.271464 91.679814 5.581924 3.541506 1.043532 -2.540677 -3.470979 -4.172822 0.959235 9.115237 -9.736977 0.000000 -0.000000 0.000000 -10.573475 -10.058706 0.513689 2.102150 -13.436019 3.402115 4.859022 -8.578465 -6.582142 0.000000 -0.000000 0.000000 2.254827 4.082784 -4.343670 -1.600866 1.032905 7.851115 -1.357253 1.644801 -2.347940 -2.045776 23.611028 2.433599 0.017781 19.903048 13.745504 -31.149703 0.157501 0.659435 -55.894799 -6.644592 13.106830 10.164480 -19.752607 -1.347956 -4.384961 -11.867382 -3.206453 32.055467 4.299268 8.079280 52.414760 8.149510 9.669740 -15.039832 17.975026 -19.948638 7.335326 10.348348 -16.134193 
-0.000441 0.015223 0.980387 -168.972537 -1.125521 91.731852 5.702631 3.656405 1.192304 -2.555977 -3.137657 -4.195237 0.943122 9.238222 -9.688210 0.000000 -0.000000 0.000000 -10.524495 -9.948388 0.139683 2.182036 -13.222163 3.969491 4.735916 -8.367507 -6.252158 0.000000 -0.000000 0.000000 2.508122 3.894461 -4.400016 -1.524339 1.075329 7.631487 -1.518431 1.576512 -2.382104 -2.560796 20.816168 1.984055 -0.325918 16.414642 13.931821 -31.328554 0.329114 0.749481 -55.806097 -6.622516 13.345803 10.074120 -19.740977 -1.232027 -4.468113 -12.290715 -3.148801 31.954786 4.516743 7.792169 52.450258 7.836951 9.805811 -14.736690 18.008063 -19.729715 6.810243 10.529555 -16.645846 
-0.000802 0.015788 0.980267 -169.566107 -1.031304 91.743021 5.742084 3.659993 1.299553 -2.507538 -2.786276 -4.075906 0.942376 9.374654 -9.777330 0.000000 -0.000000 0.000000 -10.439339 -9.775773 -0.068398 2.116672 -12.898227 4.137579 4.789492 -8.362119 -6.152695 0.000000 -0.000000 0.000000 2.526474 3.710286 -4.590840 -1.319554 0.984240 7.570447 -1.609605 1.457510 -2.283564 -2.865924 17.682336 1.442564 -0.848052 12.732375 14.082014 -31.525839 0.548936 0.700229 -55.696584 -6.651712 13.581153 9.852701 -19.851925 -1.304737 -4.250794 -12.396742 -3.009779 31.979602 4.591974 7.455336 52.215433 7.887082 9.829553 -14.502136 18.304326 -19.591099 6.414178 10.477437 -16.404585 
-0.001541 0.016581 0.980046 -170.226985 -1.008790 91.822584 5.613573 3.796069 1.399353 -2.332711 -2.490814 -4.025599 0.931236 9.478289 -9.868741 0.000000 -0.000000 0.000000 -10.378239 -9.642223 -0.318408 1.913687 -12.654874 3.997800 4.919466 -8.311192 -6.335219 0.000000 -0.000000 0.000000 2.417330 3.580729 -4.825445 -1.075286 0.844666 7.610009 -1.713770 1.403662 -2.348816 -3.297913 14.673049 0.865768 -1.260884 9.126171 13.965921 -31.644898 0.750217 0.508706 -55.559234 -6.475007 14.039001 9.532714 -19.906731 -1.394188 -4.396890 -12.232998 -2.515133 32.101785 4.561905 6.910048 52.002699 7.624512 9.858006 -14.414792 18.635199 -19.432800 6.689669 10.577082 -15.791456 
-0.002055 0.017424 0.980059 -170.866428 -0.844607 91.819307 5.723585 4.136242 1.528625 -2.322068 -2.273052 -3.897134 0.857576 9.543066 -9.918789 0.000000 -0.000000 0.000000 -10.242284 -9.469206 -0.406409 1.917155 -12.393768 3.985956 4.861071 -8.176748 -6.278871 0.000000 -0.000000 0.000000 2.476126 3.191802 -4.839661 -0.939337 0.678648 7.402727 -1.761859 1.506392 -2.566275 -3.654823 11.742583 0.758725 -1.416747 5.867506 13.680906 -31.749962 0.826907 0.791875 -55.524272 -6.267634 14.340014 9.550015 -19.864647 -1.220588 -4.300435 -12.294868 -2.524389 32.060592 4.687693 6.637216 52.021856 7.188120 9.884137 -14.092533 19.009556 -19.269855 6.027538 10.377889 -16.319571 
-0.002494 0.018357 0.979946 -171.591528 -0.737761 91.829992 5.782176 4.427004 1.673324 -2.314110 -1.931927 -3.772136 0.865695 9.584834 -9.960390 0.000000 -0.000000 0.000000 -10.156781 -9.218623 -0.550222 1.905813 -12.153740 3.990838 4.830230 -8.041417 -6.300248 0.000000 -0.000000 0.000000 2.400972 3.020296 -5.156226 -0.724916 0.584863 7.664037 -1.777996 1.441021 -2.671209 -3.786718 9.371783 0.484263 -1.613123 2.858140 13.373581 -31.932401 0.618081 1.068713 -55.427585 -6.259433 14.311625 9.629908 -19.635608 -1.511991 -4.794766 -12.373709 -2.056626 32.202456 4.886309 6.390677 51.797466 6.845663 9.703343 -14.342677 19.601569 -19.204020 6.029883 10.753222 -15.832267 
-0.003111 0.019906 0.979765 -172.000962 -0.615891 91.809238 5.893976 4.431929 1.987788 -2.263337 -1.788448 -3.899364 0.869175 9.650967 -10.027411 0.000000 -0.000000 0.000000 -10.080678 -9.172583 -0.351069 1.985371 -11.832399 3.676121 4.806049 -7.976457 -6.239957 0.000000 -0.000000 0.000000 2.277996 2.789301 -5.495287 -0.498025 0.214483 7.880231 -1.726811 1.341949 -2.652407 -3.873207 7.193439 0.215364 -1.598782 0.274587 13.219508 -32.131811 0.473427 1.320103 -55.275556 -6.237520 14.335492 9.605400 -19.497563 -1.667367 -4.929143 -12.460945 -1.787958 32.259332 5.066333 6.269825 51.668435 6.615324 9.582028 -14.425467 20.029031 -19.053136 5.934218 10.950764 -15.585342 
